
<svg width="16px" height="16px" viewBox="1421 42 16 16" version="1.1" xmlns="http://www.w3.org/2000/svg" xmlns:xlink="http://www.w3.org/1999/xlink">
    <path d="M1436,56.5 C1436,56.775 1435.775,57 1435.5,57 L1427.5,57 C1427.225,57 1427,56.775 1427,56.5 L1427,53 L1430.5,53 C1431.327,53 1432,52.327 1432,51.5 L1432,48 L1435.5,48 C1435.775,48 1436,48.225 1436,48.5 L1436,56.5 Z M1422,51.5 L1422,43.5 C1422,43.225 1422.225,43 1422.5,43 L1430.5,43 C1430.775,43 1431,43.225 1431,43.5 L1431,51.5 C1431,51.775 1430.775,52 1430.5,52 L1422.5,52 C1422.225,52 1422,51.775 1422,51.5 L1422,51.5 Z M1435.5,47 L1432,47 L1432,43.5 C1432,42.673 1431.327,42 1430.5,42 L1422.5,42 C1421.673,42 1421,42.673 1421,43.5 L1421,51.5 C1421,52.327 1421.673,53 1422.5,53 L1426,53 L1426,56.5 C1426,57.327 1426.673,58 1427.5,58 L1435.5,58 C1436.327,58 1437,57.327 1437,56.5 L1437,48.5 C1437,47.673 1436.327,47 1435.5,47 L1435.5,47 Z" id="Page-1" stroke="none" fill="#6C7480" fill-rule="evenodd" transform="translate(1429.000000, 50.000000) scale(-1, 1) translate(-1429.000000, -50.000000) "></path>
</svg>