
<svg width="13px" height="16px" viewBox="1463 42 13 16" version="1.1" xmlns="http://www.w3.org/2000/svg" xmlns:xlink="http://www.w3.org/1999/xlink">
    <g id="" stroke="none" stroke-width="1" fill="none" fill-rule="evenodd" transform="translate(1463.000000, 42.000000)">
        <path d="M11,14.5 C11,14.775 10.775,15 10.5,15 L2.5,15 C2.225,15 2,14.775 2,14.5 L2,3 L3.5,3 L9.5,3 L11,3 L11,14.5 Z M4,2 L9,2 L9,1 L4,1 L4,2 Z M12.5,2 L11.5,2 L10,2 L10,0.5 C10,0.224 9.776,0 9.5,0 L3.5,0 C3.224,0 3,0.224 3,0.5 L3,2 L1.5,2 L0.5,2 C0.224,2 0,2.224 0,2.5 C0,2.776 0.224,3 0.5,3 L1,3 L1,14.5 C1,15.327 1.673,16 2.5,16 L10.5,16 C11.327,16 12,15.327 12,14.5 L12,3 L12.5,3 C12.776,3 13,2.776 13,2.5 C13,2.224 12.776,2 12.5,2 L12.5,2 Z" id="Fill-1" fill="#6C7480"></path>
        <path d="M4.5,6 C4.224,6 4,6.224 4,6.5 L4,11.5 C4,11.776 4.224,12 4.5,12 C4.776,12 5,11.776 5,11.5 L5,6.5 C5,6.224 4.776,6 4.5,6" id="Fill-3" fill="#6C7480"></path>
        <path d="M8.5,6 C8.224,6 8,6.224 8,6.5 L8,11.5 C8,11.776 8.224,12 8.5,12 C8.776,12 9,11.776 9,11.5 L9,6.5 C9,6.224 8.776,6 8.5,6" id="Fill-5" fill="#6C7480"></path>
        <path d="M6.5,6 C6.224,6 6,6.224 6,6.5 L6,11.5 C6,11.776 6.224,12 6.5,12 C6.776,12 7,11.776 7,11.5 L7,6.5 C7,6.224 6.776,6 6.5,6" id="Fill-7" fill="#6C7480"></path>
    </g>
</svg>