
<svg width="24px" height="24px" viewBox="1791 28 24 24" version="1.1" xmlns="http://www.w3.org/2000/svg" xmlns:xlink="http://www.w3.org/1999/xlink">
    <g id="24x24-Search" stroke="none" stroke-width="1" fill="none" fill-rule="evenodd" transform="translate(1791.000000, 28.000000)">
        <path d="M10,17 C6.1,17 3,13.9 3,10 C3,6.1 6.1,3 10,3 C13.9,3 17,6.1 17,10 C17,13.9 13.9,17 10,17 M22.7,21.3 L17,15.6 C18.2,14.1 19,12.1 19,10 C19,5 15,1 10,1 C5,1 1,5 1,10 C1,15 5,19 10,19 C12.1,19 14.1,18.3 15.6,17 L21.3,22.7 C21.5,22.9 21.8,23 22,23 C22.2,23 22.5,22.9 22.7,22.7 C23.1,22.3 23.1,21.7 22.7,21.3" id="Page-1" fill="#6C7480"></path>
    </g>
</svg>