<svg width="40px" height="40px" viewBox="20 20 40 40" version="1.1" xmlns="http://www.w3.org/2000/svg" xmlns:xlink="http://www.w3.org/1999/xlink">
    <g id="Logo/40x40" stroke="none" stroke-width="1" fill="none" fill-rule="evenodd" transform="translate(20.000000, 20.000000)">
        <path d="M5.5869165,14.0227119 L5.82277306,5.88733739 C3.99807047,7.72031172 2.52860587,9.90606487 1.52168839,12.3323694 L5.58557513,14.0242769 L5.5869165,14.0227119 Z" id="Fill-1" fill="#F18D27"></path>
        <path d="M1.52162132,12.3322799 C0.542872493,14.6906219 6.70682157e-05,17.275431 6.70682157e-05,19.9876696 L5.58550806,14.0241874 L1.52162132,12.3322799 Z" id="Fill-3" fill="#A71E22"></path>
        <path d="M0,19.9877814 C0,22.6620147 0.529168221,25.2115012 1.481984,27.5430159 L5.58678236,25.9528285 L0,19.9877814 Z" id="Fill-5" fill="#C72026"></path>
        <path d="M12.3344038,1.52083886 C9.87925994,2.53960505 7.67048004,4.03164929 5.82409206,5.88608545 L14.0231814,5.58807901 L12.3344038,1.52083886 Z" id="Fill-7" fill="#F89F3E"></path>
        <path d="M27.6410025,1.52072708 C25.2833312,0.542648933 22.6991929,6.70682154e-05 19.9878485,6.70682154e-05 L25.9522249,5.58841435 L27.6410025,1.52072708 Z" id="Fill-9" fill="#8EC442"></path>
        <path d="M34.3882215,14.0230026 L39.9756746,19.9878261 C39.9756746,17.2780466 39.4337634,14.6954732 38.4565795,12.3391432 L34.3877744,14.0086947 L34.3882215,14.0230026 Z" id="Fill-11" fill="#3FAF73"></path>
        <path d="M19.9877814,0 C17.2762134,0 14.6920751,0.542581864 12.3344038,1.52088357 L14.0231814,5.58812372 L19.9877814,0 Z" id="Fill-14" fill="#CED229"></path>
        <path d="M34.1336753,5.86723928 C32.2908643,4.02129843 30.0881205,2.53596101 27.6410249,1.52077179 L25.9520237,5.58845907 L34.1336753,5.86723928 Z" id="Fill-16" fill="#4AB148"></path>
        <path d="M38.4566689,12.339188 C37.4461745,9.90170544 35.9693324,7.70633918 34.1341224,5.86777583 L34.3878638,14.0087394 L38.4566689,12.339188 Z" id="Fill-18" fill="#71C27F"></path>
        <path d="M1.48209578,27.5429712 C2.49683789,30.0258365 3.99290622,32.2609966 5.86008534,34.1268343 L5.58689414,25.9530073 L1.48209578,27.5429712 Z" id="Fill-20" fill="#EE3B3A"></path>
        <path d="M34.1109392,34.1311714 C35.9575507,32.2872426 37.4426646,30.0829339 38.4574067,27.6342734 L34.388378,25.9526496 L34.1109392,34.1311714 Z" id="Fill-22" fill="#2267B2"></path>
        <path d="M19.9877814,39.9755628 C22.7042677,39.9755628 25.2931008,39.4311924 27.6541256,38.4497609 L25.9526049,34.3881098 L19.9877814,39.9755628 Z" id="Fill-24" fill="#884A9C"></path>
        <path d="M34.388378,25.952672 L38.4574067,27.6342957 C39.4339199,25.2784129 39.9756075,22.6967337 39.9756075,19.9878485 L34.388378,25.952672 Z" id="Fill-26" fill="#44BFB4"></path>
        <path d="M27.6541256,38.4496491 C30.0857955,37.4387075 32.2757963,35.9634304 34.1105591,34.1313503 L25.9526049,34.387998 L27.6541256,38.4496491 Z" id="Fill-29" fill="#A65DA4"></path>
        <path d="M12.3460736,38.4594411 C14.7006151,39.4346129 17.2807294,39.9756299 19.9878261,39.9756299 L14.022779,34.3884004 L12.3460736,38.4594411 Z" id="Fill-31" fill="#9D216A"></path>
        <path d="M5.86019712,34.1268791 C7.70211388,35.9672309 9.90262204,37.4472028 12.3461407,38.4594858 L14.0228461,34.3884451 L5.86019712,34.1268791 Z" id="Fill-34" fill="#E15583"></path>
        <polygon id="Fill-36" fill="#221F20" points="34.1112156 34.1317161 34.1112156 34.1312161 34.1107156 34.1317161"></polygon>
        <polygon id="Fill-38" fill="#221F20" points="5.86001827 33.9584032 5.86051827 33.9584032"></polygon>
        <polygon id="Fill-40" fill="#221F20" points="34.1346753 5.86723928 34.1336753 5.86723928 34.1346753 5.86823928"></polygon>
        <polygon id="Fill-42" fill="#221F20" points="5.82270599 5.88604074 5.82270599 5.88904074 5.82570599 5.88604074"></polygon>
        <polygon id="Fill-44" fill="#65C7CA" points="31.0856485 19.9877814 34.388311 25.9526049 39.9755404 19.9877814 34.388311 14.0229579"></polygon>
        <polygon id="Fill-46" fill="#DB4598" points="19.9877814 31.0856261 19.9877814 31.0856261 14.0227343 34.3882886 19.9877814 39.9755181 25.9526049 34.388065"></polygon>
        <polygon id="Fill-48" fill="#C02F4F" points="12.141918 27.8337119 5.58689414 25.9528956 5.86008534 34.1267226 5.8603089 34.1269461 14.0227343 34.3882886"></polygon>
        <polygon id="Fill-50" fill="#ED2825" points="8.88993669 19.9877814 5.58682707 14.0227343 5.58548571 14.0242992 5.58682707 14.0247463 5.58548571 14.0242992 4.47121438e-05 19.9877814 5.58682707 25.9528285"></polygon>
        <polygon id="Fill-52" fill="#3391CF" points="27.833779 27.8337566 25.9525155 34.3881098 34.1106933 34.131462 34.1109168 34.1312385 34.3883557 25.9527167"></polygon>
        <polygon id="Fill-54" fill="#F26D29" points="12.1425216 12.1425216 14.0233379 5.58816844 5.824025 5.88595131 5.82313075 5.88706912 5.58682707 14.0226672"></polygon>
        <polygon id="Fill-56" fill="#B1D245" points="27.8336001 12.1419627 34.3881768 14.0230026 34.3877297 14.0086947 34.3682799 14.0167429 34.3877297 14.0086947 34.1342118 5.86773112 34.1337647 5.86750756 25.9521131 5.58850378"></polygon>
        <polygon id="Fill-58" fill="#F8E321" points="19.9877814 8.88991434 25.9521578 5.58836964 19.9877814 2.23560719e-05 14.0231814 5.58814608"></polygon>
        <polygon id="Fill-60" fill="#F58A5B" points="5.5869165 14.0227119 8.89002612 19.987759 12.142611 12.1425663"></polygon>
        <polygon id="Fill-62" fill="#F16364" points="5.58680472 25.9528956 12.1418286 27.8337119 8.88991434 19.9878485"></polygon>
        <polygon id="Fill-64" fill="#CAAFD3" points="25.9526273 34.3881098 27.8338907 27.8337566 19.9878038 31.0856708"></polygon>
        <polygon id="Fill-66" fill="#F284A9" points="12.141918 27.8337119 14.0227343 34.3882886 19.9877814 31.0858497 19.9875578 31.0858497"></polygon>
        <polygon id="Fill-68" fill="#41C6ED" points="27.833779 27.8337566 34.3883557 25.9527167 31.0856932 19.9876696"></polygon>
        <polygon id="Fill-70" fill="#96C93C" points="25.9521131 5.58845907 19.9877367 8.89000376 27.8336001 12.141918"></polygon>
        <polygon id="Fill-72" fill="#66C086" points="34.3882215 14.0230026 27.8336448 12.1419627 31.085559 19.9878261"></polygon>
        <polygon id="Fill-74" fill="#FABC2E" points="14.0232261 5.58816844 12.1424098 12.1425216 19.9878261 8.88993669"></polygon>
        <path id="Fill-76" fill="#221F20"></path>
    </g>
</svg>